# xmcd CD database file
#
# Track frame offsets:
#	150
#	15990
#	30778
#	52898
#	67878
#	82419
#	95922
#	112368
#	129214
#	148969
#	166230
#	181760
#	195413
#	211396
#	224857
#	242682
#	261322
#	274696
#	287826
#
# Disc length: 4019 seconds
#
# Revision: 0
# Processed by: cddbd v1.5.1PL0 Copyright (c) Steve Scherf et al.
# Submitted via: CDex 1.51
#
DISCID=1e0fb113
DTITLE=Brooks and Dunn - The Greatest Hits Collection
DYEAR=1997
DGENRE=Country
TTITLE0=My Maria - Brooks and Dunn
TTITLE1=Honky Tonk Truth - Brooks and Dunn
TTITLE2=You're Gonna Miss Me When I'm Gone - Brooks and Dunn
TTITLE3=Boot Scootin' Boogie - Brooks and Dunn
TTITLE4=He's Got You - Brooks and Dunn
TTITLE5=Hard Workin' Man - Brooks and Dunn
TTITLE6=That Ain't No Way To Go - Brooks and Dunn
TTITLE7=Rock My World (Little Country Girl) - Brooks and Dunn
TTITLE8=Neon Moon - Brooks and Dunn
TTITLE9=Lost And Found - Brooks and Dunn
TTITLE10=She's Not The Cheatin' Kind - Brooks and Dunn
TTITLE11=Brand New Man - Brooks and Dunn
TTITLE12=Days Of Thunder - Brooks and Dunn
TTITLE13=We'll Burn That Bridge - Brooks and Dunn
TTITLE14=She Used To Be Mine - Brooks and Dunn
TTITLE15=Mama Don't Get Dressed Up For Nothing - Brooks and Dunn
TTITLE16=My Next Broken Heart - Brooks and Dunn
TTITLE17=Whiskey Under The Bridge - Brooks and Dunn
TTITLE18=Little Miss Honky Tonk - Brooks and Dunn
EXTD=YEAR: 1997
EXTT0=
EXTT1=
EXTT2=
EXTT3=
EXTT4=
EXTT5=
EXTT6=
EXTT7=
EXTT8=
EXTT9=
EXTT10=
EXTT11=
EXTT12=
EXTT13=
EXTT14=
EXTT15=
EXTT16=
EXTT17=
EXTT18=
PLAYORDER=
